<?xml version="1.0" encoding="utf-8"?>
<!-- Generator: Adobe Illustrator 24.2.1, SVG Export Plug-In . SVG Version: 6.00 Build 0)  -->
<svg version="1.1" id="Layer_1" xmlns="http://www.w3.org/2000/svg" xmlns:xlink="http://www.w3.org/1999/xlink" x="0px" y="0px"
	 viewBox="0 0 80 80" style="enable-background:new 0 0 80 80;" xml:space="preserve">
<style type="text/css">
	.st0{fill:#F86464;}
	.st1{fill:#61C4F2;}
	.st2{fill:#FCFCFC;}
	.st3{fill:#F5F6F7;}
	.st4{fill:#FFFFFF;}
</style>
<g>
	<path class="st1" d="M34.32,74.1h41.05V23.93L34.32,74.1z M67.79,66.53H50.31l17.48-21.36V66.53z"/>
	<path class="st0" d="M52.63,44.42V41.9h-7.58v3.16h-7.58V41.9H19.79v4.12c0,4,3.25,7.25,7.25,7.25h18.01
		C45.26,53.26,52.63,44.42,52.63,44.42z"/>
	<g>
		<path class="st4" d="M51.92,45.39c-0.05,0-0.11,0-0.17-0.01c-0.51-0.09-0.86-0.58-0.77-1.1l0.2-1.12H46
			c-0.52,0-0.95-0.42-0.95-0.95s0.42-0.95,0.95-0.95h6.32c0.28,0,0.55,0.12,0.73,0.34c0.18,0.21,0.26,0.5,0.21,0.77l-0.39,2.23
			C52.78,45.07,52.38,45.39,51.92,45.39z"/>
	</g>
	<g>
		<path class="st4" d="M44.74,53.89H25.87c-3.07,0-5.68-2.19-6.22-5.21l-1.11-6.3c-0.05-0.28,0.03-0.56,0.21-0.77
			c0.18-0.21,0.45-0.34,0.73-0.34h13.89c0.52,0,0.95,0.42,0.95,0.95s-0.42,0.95-0.95,0.95H20.61l0.92,5.19
			c0.37,2.11,2.2,3.65,4.35,3.65h18.87c0.52,0,0.95,0.42,0.95,0.95S45.26,53.89,44.74,53.89z"/>
	</g>
	<g>
		<path class="st4" d="M37.16,39.37H17.58c-0.52,0-0.95-0.42-0.95-0.95c0-0.52,0.42-0.95,0.95-0.95h19.58
			c0.52,0,0.95,0.42,0.95,0.95C38.11,38.95,37.68,39.37,37.16,39.37z"/>
	</g>
	<g>
		<path class="st4" d="M54.21,40H46c-0.52,0-0.95-0.42-0.95-0.95s0.42-0.95,0.95-0.95h8.21c0.52,0,0.95,0.42,0.95,0.95
			S54.74,40,54.21,40z"/>
	</g>
	<g>
		<path class="st4" d="M20.74,38.74c-0.52,0-0.95-0.42-0.95-0.95V25.23c0-1.74,0.87-3.36,2.32-4.33c1.45-0.97,3.28-1.15,4.89-0.47
			l1.69,0.7c0.48,0.2,0.71,0.76,0.51,1.24c-0.2,0.48-0.76,0.71-1.24,0.51l-1.69-0.7c-1.04-0.43-2.17-0.32-3.11,0.3
			c-0.94,0.62-1.47,1.63-1.47,2.75v12.56C21.69,38.31,21.26,38.74,20.74,38.74z"/>
	</g>
	<g>
		<path class="st4" d="M28.99,26.92c-0.6,0-0.98-0.28-1.19-0.5c-0.66-0.7-1.01-1.62-0.98-2.59c0.03-0.96,0.43-1.86,1.14-2.52
			c0.7-0.66,1.62-1.02,2.59-0.98c0.96,0.03,1.86,0.43,2.52,1.14c0.3,0.32,0.72,1.04,0.12,2.25c-0.28,0.56-0.76,1.17-1.34,1.72
			c-0.59,0.55-1.23,0.99-1.8,1.24C29.63,26.85,29.28,26.92,28.99,26.92z M30.43,22.23c-0.44,0-0.85,0.16-1.18,0.47
			c-0.33,0.31-0.53,0.74-0.54,1.2c-0.01,0.41,0.12,0.8,0.37,1.11c0.25-0.06,0.82-0.34,1.46-0.95c0.64-0.6,0.96-1.15,1.04-1.4
			c-0.3-0.27-0.68-0.42-1.09-0.43C30.47,22.23,30.45,22.23,30.43,22.23z"/>
	</g>
	<g>
		<path class="st4" d="M27.06,57.68c-0.52,0-0.95-0.42-0.95-0.95v-3.16c0-0.52,0.42-0.95,0.95-0.95c0.52,0,0.95,0.42,0.95,0.95v3.16
			C28,57.26,27.58,57.68,27.06,57.68z"/>
	</g>
	<g>
		<path class="st4" d="M45.37,46.32h-8.21c-0.52,0-0.95-0.42-0.95-0.95v-8.21c0-0.52,0.42-0.95,0.95-0.95h8.21
			c0.52,0,0.95,0.42,0.95,0.95v8.21C46.32,45.89,45.89,46.32,45.37,46.32z M38.11,44.42h6.32v-6.32h-6.32V44.42z"/>
	</g>
	<g>
		<path class="st4" d="M70,24.84c-0.52,0-0.95-0.42-0.95-0.95v-9.79H13.16c-0.52,0-0.95-0.42-0.95-0.95s0.42-0.95,0.95-0.95H70
			c0.52,0,0.95,0.42,0.95,0.95V23.9C70.95,24.42,70.52,24.84,70,24.84z"/>
	</g>
	<g>
		<path class="st4" d="M37.16,64.63H8.74c-2.96,0-5.37-2.41-5.37-5.37s2.41-5.37,5.37-5.37h2.84V4.7c-3.56,0.47-6.32,3.52-6.32,7.2
			v40.42c0,0.52-0.42,0.95-0.95,0.95c-0.52,0-0.95-0.42-0.95-0.95V11.9c0-5.05,4.11-9.16,9.16-9.16c0.52,0,0.95,0.42,0.95,0.95
			v51.15c0,0.52-0.42,0.95-0.95,0.95H8.74c-1.91,0-3.47,1.56-3.47,3.47c0,1.91,1.56,3.47,3.47,3.47h28.42
			c0.52,0,0.95,0.42,0.95,0.95C38.11,64.21,37.68,64.63,37.16,64.63z"/>
	</g>
	<g>
		<path class="st4" d="M75.05,74.74H34c-0.37,0-0.7-0.21-0.86-0.54c-0.16-0.33-0.11-0.72,0.12-1.01l41.05-50.17
			c0.25-0.31,0.67-0.43,1.05-0.29c0.38,0.14,0.63,0.49,0.63,0.89v50.17C76,74.31,75.58,74.74,75.05,74.74z M36,72.84h38.1V26.27
			L36,72.84z"/>
	</g>
	<g>
		<path class="st4" d="M67.47,67.16H50c-0.37,0-0.7-0.21-0.86-0.54c-0.16-0.33-0.11-0.72,0.12-1.01l17.48-21.36
			c0.25-0.31,0.67-0.43,1.05-0.29c0.38,0.14,0.63,0.49,0.63,0.89v21.36C68.42,66.73,68,67.16,67.47,67.16z M51.99,65.26h14.53V47.5
			L51.99,65.26z"/>
	</g>
	<g>
		<path class="st4" d="M63.05,23.58H52.32c-0.52,0-0.95-0.42-0.95-0.95s0.42-0.95,0.95-0.95h10.74c0.52,0,0.95,0.42,0.95,0.95
			S63.58,23.58,63.05,23.58z"/>
	</g>
	<g>
		<path class="st4" d="M63.05,29.26H46.63c-0.52,0-0.95-0.42-0.95-0.95c0-0.52,0.42-0.95,0.95-0.95h16.42
			c0.52,0,0.95,0.42,0.95,0.95C64,28.84,63.58,29.26,63.05,29.26z"/>
	</g>
</g>
</svg>
