<?xml version="1.0" encoding="utf-8"?>
<!-- Generator: Adobe Illustrator 24.2.1, SVG Export Plug-In . SVG Version: 6.00 Build 0)  -->
<svg version="1.1" id="Layer_1" xmlns="http://www.w3.org/2000/svg" xmlns:xlink="http://www.w3.org/1999/xlink" x="0px" y="0px"
	 viewBox="0 0 80 80" style="enable-background:new 0 0 80 80;" xml:space="preserve">
<style type="text/css">
	.st0{fill:#F86464;}
	.st1{fill:#61C4F2;}
	.st2{fill:#FCFCFC;}
	.st3{fill:#F5F6F7;}
</style>
<g>
	<polygon class="st0" points="63.4,57.57 77.95,43.03 72.8,37.88 58.1,52.59 	"/>
	<polygon class="st0" points="54.49,56.2 39.74,70.95 44.88,76.09 59.32,61.65 	"/>
	<path class="st1" d="M42.5,50.39l-4.76,4.3l-5.73-6.35l4.76-4.3l2.37,0.5c5.01-10.11,14.3-10.76,23.74-7.75
		c-4.84,0.95-9.31,2.16-12.34,4.42l1.86,4.02l-5.4,4.99l-4.88-2.38L42.5,50.39z"/>
	<g>
		<path class="st2" d="M37.2,64.45H8.07c-0.51,0-0.93-0.42-0.93-0.93c0-0.51,0.42-0.93,0.93-0.93H37.2c0.51,0,0.93,0.42,0.93,0.93
			C38.13,64.03,37.71,64.45,37.2,64.45z"/>
	</g>
	<g>
		<path class="st2" d="M34.1,46.48c-0.51,0-0.93-0.42-0.93-0.93V12.7c0-0.51,0.42-0.93,0.93-0.93h23.55c0.51,0,0.93,0.42,0.93,0.93
			v21.69c0,0.51-0.42,0.93-0.93,0.93c-0.51,0-0.93-0.42-0.93-0.93V13.63H35.03v31.92C35.03,46.06,34.61,46.48,34.1,46.48z"/>
	</g>
	<g>
		<path class="st2" d="M34.72,63.83c-0.51,0-0.93-0.42-0.93-0.93v-6.82c0-0.51,0.42-0.93,0.93-0.93c0.51,0,0.93,0.42,0.93,0.93v6.82
			C35.65,63.41,35.23,63.83,34.72,63.83z"/>
	</g>
	<g>
		<path class="st2" d="M11.17,63.83c-0.51,0-0.93-0.42-0.93-0.93V37.49c0-0.51,0.42-0.93,0.93-0.93H34.1c0.51,0,0.93,0.42,0.93,0.93
			c0,0.51-0.42,0.93-0.93,0.93h-22V62.9C12.1,63.41,11.68,63.83,11.17,63.83z"/>
	</g>
	<g>
		<path class="st2" d="M30.38,45.86H11.79c-0.51,0-0.93-0.42-0.93-0.93c0-0.51,0.42-0.93,0.93-0.93h18.59
			c0.51,0,0.93,0.42,0.93,0.93C31.31,45.44,30.89,45.86,30.38,45.86z"/>
	</g>
	<g>
		<path class="st2" d="M56.41,27.89H35.34c-0.51,0-0.93-0.42-0.93-0.93s0.42-0.93,0.93-0.93h21.07c0.51,0,0.93,0.42,0.93,0.93
			S56.92,27.89,56.41,27.89z"/>
	</g>
	<g>
		<path class="st2" d="M22.94,63.83c-0.51,0-0.93-0.42-0.93-0.93V45.55c0-0.51,0.42-0.93,0.93-0.93c0.51,0,0.93,0.42,0.93,0.93V62.9
			C23.87,63.41,23.46,63.83,22.94,63.83z"/>
	</g>
	<g>
		<path class="st2" d="M23.56,42.14H21.7c-0.51,0-0.93-0.42-0.93-0.93c0-0.51,0.42-0.93,0.93-0.93h1.86c0.51,0,0.93,0.42,0.93,0.93
			C24.49,41.72,24.08,42.14,23.56,42.14z"/>
	</g>
	<g>
		<path class="st2" d="M19.22,53.92c-0.51,0-0.93-0.42-0.93-0.93v-1.86c0-0.51,0.42-0.93,0.93-0.93c0.51,0,0.93,0.42,0.93,0.93v1.86
			C20.15,53.5,19.74,53.92,19.22,53.92z"/>
	</g>
	<g>
		<path class="st2" d="M26.04,53.92c-0.51,0-0.93-0.42-0.93-0.93v-1.86c0-0.51,0.42-0.93,0.93-0.93c0.51,0,0.93,0.42,0.93,0.93v1.86
			C26.97,53.5,26.55,53.92,26.04,53.92z"/>
	</g>
	<g>
		<path class="st2" d="M38.44,39.66c-0.51,0-0.93-0.42-0.93-0.93v-4.96c0-0.51,0.42-0.93,0.93-0.93c0.51,0,0.93,0.42,0.93,0.93v4.96
			C39.37,39.24,38.95,39.66,38.44,39.66z"/>
	</g>
	<g>
		<path class="st2" d="M38.44,23.55c-0.51,0-0.93-0.42-0.93-0.93v-4.96c0-0.51,0.42-0.93,0.93-0.93c0.51,0,0.93,0.42,0.93,0.93v4.96
			C39.37,23.13,38.95,23.55,38.44,23.55z"/>
	</g>
	<g>
		<path class="st2" d="M22.32,19.21c-0.51,0-0.93-0.42-0.93-0.93V12.7c0-0.51,0.42-0.93,0.93-0.93c0.51,0,0.93,0.42,0.93,0.93v5.58
			C23.25,18.79,22.84,19.21,22.32,19.21z"/>
	</g>
	<g>
		<path class="st2" d="M28.03,25.41h-11.7c-0.51,0-0.93-0.42-0.93-0.93c0-3.74,3.04-6.78,6.78-6.78s6.78,3.04,6.78,6.78
			C28.96,24.99,28.54,25.41,28.03,25.41z M17.34,23.55h9.67c-0.44-2.27-2.44-3.99-4.84-3.99S17.78,21.28,17.34,23.55z"/>
	</g>
	<g>
		<path class="st2" d="M65.49,56.08c-0.24,0-0.48-0.09-0.66-0.27c-0.36-0.36-0.36-0.95,0-1.32l11.93-11.96l-5.74-5.74L57.37,50.54
			c-0.36,0.36-0.95,0.37-1.31,0c-0.36-0.36-0.37-0.95,0-1.31l14.3-14.41c0.17-0.18,0.41-0.27,0.66-0.27c0.25,0,0.48,0.1,0.66,0.27
			l7.06,7.06c0.36,0.36,0.36,0.95,0,1.31L66.15,55.81C65.96,55.99,65.73,56.08,65.49,56.08z"/>
	</g>
	<g>
		<path class="st2" d="M44.56,76.97c-0.24,0-0.48-0.09-0.66-0.27l-7.06-7.06c-0.17-0.17-0.27-0.41-0.27-0.66
			c0-0.25,0.1-0.48,0.27-0.66l14.15-14.15c0.36-0.36,0.95-0.36,1.31,0c0.36,0.36,0.36,0.95,0,1.31L38.82,68.98l5.74,5.74L57.89,61.4
			c0.36-0.36,0.95-0.36,1.31,0c0.36,0.36,0.36,0.95,0,1.31L45.22,76.7C45.04,76.88,44.8,76.97,44.56,76.97z"/>
	</g>
	<g>
		<path class="st2" d="M71.82,74.88c-1.14,0-2.31-0.46-3.21-1.36L47.25,50.69c-0.35-0.38-0.33-0.96,0.04-1.31
			c0.37-0.35,0.96-0.33,1.31,0.04l21.33,22.81c0.98,0.97,2.5,1.07,3.38,0.19l0.55-0.55c0.88-0.88,0.78-2.4-0.22-3.4L52.01,47.02
			c-0.36-0.36-0.37-0.95-0.01-1.31c0.36-0.36,0.95-0.37,1.31-0.01l21.64,21.45c0.83,0.83,1.31,1.9,1.36,3.02
			c0.05,1.15-0.35,2.22-1.14,3.01l-0.55,0.55C73.87,74.5,72.85,74.88,71.82,74.88z"/>
	</g>
	<g>
		<path class="st2" d="M37.74,55.62c-0.02,0-0.03,0-0.05,0c-0.25-0.01-0.48-0.12-0.64-0.31l-5.73-6.35
			c-0.34-0.38-0.31-0.97,0.07-1.31l4.76-4.3c0.22-0.2,0.52-0.28,0.82-0.22l1.68,0.36c4.6-8.61,13.07-11.23,24.53-7.58
			c0.4,0.13,0.67,0.52,0.65,0.94c-0.02,0.42-0.33,0.78-0.75,0.86c-3.92,0.77-8.29,1.82-11.35,3.82l1.54,3.32
			c0.17,0.37,0.08,0.8-0.21,1.07l-5.4,4.99c-0.38,0.35-0.96,0.33-1.31-0.05c-0.35-0.38-0.32-0.97,0.05-1.31l4.91-4.53L49.7,41.6
			c-0.18-0.4-0.06-0.87,0.29-1.14c2.42-1.81,5.67-2.94,8.94-3.76c-8.95-1.85-15.32,0.91-18.95,8.25c-0.19,0.38-0.61,0.58-1.03,0.5
			l-1.91-0.4l-3.72,3.36l4.49,4.97l3.7-3.34l-0.3-2.05c-0.07-0.51,0.28-0.98,0.78-1.06c0.5-0.07,0.98,0.28,1.06,0.78l0.37,2.54
			c0.04,0.31-0.07,0.62-0.3,0.83l-4.76,4.3C38.19,55.54,37.97,55.62,37.74,55.62z"/>
	</g>
	<g>
		<path class="st2" d="M63.73,50.81c-0.24,0-0.48-0.09-0.66-0.27l-2.93-2.93c-0.36-0.36-0.36-0.95,0-1.31
			c0.36-0.36,0.95-0.36,1.31,0l2.93,2.93c0.36,0.36,0.36,0.95,0,1.31C64.21,50.72,63.97,50.81,63.73,50.81z"/>
	</g>
	<g>
		<path class="st2" d="M66.07,46.13c-0.24,0-0.48-0.09-0.66-0.27l-1.76-1.76c-0.36-0.36-0.36-0.95,0-1.31
			c0.36-0.36,0.95-0.36,1.31,0l1.76,1.76c0.36,0.36,0.36,0.95,0,1.31C66.55,46.04,66.31,46.13,66.07,46.13z"/>
	</g>
	<g>
		<path class="st2" d="M69.58,42.62c-0.24,0-0.48-0.09-0.66-0.27l-1.76-1.76c-0.36-0.36-0.36-0.95,0-1.31
			c0.36-0.36,0.95-0.36,1.31,0l1.76,1.76c0.36,0.36,0.36,0.95,0,1.31C70.06,42.53,69.82,42.62,69.58,42.62z"/>
	</g>
	<g>
		<path class="st2" d="M45,69.54c-0.24,0-0.48-0.09-0.66-0.27l-2.93-2.93c-0.36-0.36-0.36-0.95,0-1.31c0.36-0.36,0.95-0.36,1.31,0
			l2.93,2.93c0.36,0.36,0.36,0.95,0,1.31C45.48,69.45,45.24,69.54,45,69.54z"/>
	</g>
	<g>
		<path class="st2" d="M47.34,64.86c-0.24,0-0.48-0.09-0.66-0.27l-1.76-1.76c-0.36-0.36-0.36-0.95,0-1.31
			c0.36-0.36,0.95-0.36,1.31,0L48,63.27c0.36,0.36,0.36,0.95,0,1.31C47.82,64.77,47.58,64.86,47.34,64.86z"/>
	</g>
	<g>
		<path class="st2" d="M50.86,61.35c-0.24,0-0.48-0.09-0.66-0.27l-1.76-1.76c-0.36-0.36-0.36-0.95,0-1.31
			c0.36-0.36,0.95-0.36,1.31,0l1.76,1.76c0.36,0.36,0.36,0.95,0,1.31C51.33,61.26,51.09,61.35,50.86,61.35z"/>
	</g>
	<g>
		<path class="st3" d="M7.37,53.92c-0.33,0-0.66-0.18-0.82-0.5c-0.22-0.41-0.42-0.83-0.62-1.25c-0.22-0.46-0.02-1.02,0.44-1.24
			c0.46-0.22,1.02-0.02,1.24,0.44c0.19,0.4,0.39,0.8,0.59,1.19c0.24,0.45,0.06,1.02-0.39,1.25C7.66,53.89,7.51,53.92,7.37,53.92z
			 M5.09,48.49c-0.39,0-0.76-0.25-0.89-0.65c-0.14-0.44-0.28-0.89-0.4-1.34c-0.14-0.5,0.15-1.01,0.65-1.14
			c0.5-0.14,1.01,0.15,1.14,0.65c0.12,0.43,0.25,0.85,0.38,1.27c0.16,0.49-0.11,1.01-0.6,1.17C5.28,48.47,5.19,48.49,5.09,48.49z
			 M3.78,42.74c-0.46,0-0.85-0.34-0.92-0.8c-0.06-0.46-0.12-0.92-0.17-1.39c-0.05-0.51,0.32-0.97,0.83-1.02
			c0.5-0.04,0.97,0.32,1.02,0.83c0.04,0.44,0.1,0.88,0.16,1.31c0.07,0.51-0.28,0.98-0.79,1.05C3.87,42.74,3.82,42.74,3.78,42.74z
			 M3.47,36.86c-0.54-0.02-0.95-0.44-0.93-0.96c0.01-0.47,0.04-0.93,0.07-1.4c0.04-0.51,0.49-0.91,0.99-0.86
			c0.51,0.04,0.9,0.48,0.86,0.99c-0.03,0.44-0.05,0.88-0.07,1.32C4.38,36.46,3.97,36.86,3.47,36.86z M72.03,32.18
			c-0.45,0-0.84-0.32-0.92-0.78c-0.07-0.44-0.15-0.87-0.25-1.3c-0.1-0.5,0.22-0.99,0.72-1.1c0.5-0.1,0.99,0.22,1.1,0.72
			c0.1,0.46,0.18,0.91,0.26,1.37c0.08,0.51-0.26,0.99-0.76,1.07C72.13,32.17,72.08,32.18,72.03,32.18z M4.15,31.01
			c-0.06,0-0.12-0.01-0.19-0.02c-0.5-0.1-0.83-0.59-0.73-1.1c0.09-0.46,0.2-0.91,0.31-1.37c0.12-0.5,0.62-0.81,1.12-0.68
			c0.5,0.12,0.8,0.63,0.68,1.12c-0.11,0.43-0.2,0.86-0.29,1.29C4.97,30.71,4.58,31.01,4.15,31.01z M70.56,26.47
			c-0.38,0-0.74-0.24-0.88-0.62c-0.15-0.42-0.3-0.83-0.46-1.24c-0.19-0.48,0.04-1.02,0.52-1.21c0.48-0.19,1.02,0.04,1.21,0.52
			c0.17,0.43,0.33,0.87,0.49,1.31c0.17,0.48-0.08,1.01-0.57,1.19C70.77,26.46,70.66,26.47,70.56,26.47z M5.81,25.36
			c-0.11,0-0.23-0.02-0.34-0.06c-0.48-0.19-0.71-0.73-0.53-1.2c0.17-0.44,0.35-0.87,0.54-1.3c0.21-0.47,0.75-0.69,1.22-0.48
			c0.47,0.21,0.68,0.75,0.48,1.22c-0.18,0.4-0.35,0.81-0.51,1.23C6.54,25.13,6.19,25.36,5.81,25.36z M68.14,21.11
			c-0.33,0-0.64-0.17-0.81-0.48c-0.22-0.39-0.44-0.77-0.67-1.14c-0.27-0.44-0.13-1.01,0.31-1.28c0.44-0.27,1.01-0.13,1.28,0.31
			c0.24,0.4,0.48,0.8,0.7,1.2c0.25,0.45,0.09,1.01-0.36,1.26C68.45,21.07,68.3,21.11,68.14,21.11z M8.43,20.07
			c-0.16,0-0.33-0.04-0.48-0.13c-0.44-0.27-0.58-0.84-0.31-1.28c0.24-0.4,0.49-0.79,0.75-1.18c0.28-0.43,0.86-0.55,1.29-0.26
			c0.43,0.28,0.55,0.86,0.26,1.29c-0.24,0.37-0.48,0.74-0.71,1.12C9.05,19.91,8.74,20.07,8.43,20.07z M64.84,16.23
			c-0.27,0-0.54-0.12-0.72-0.35c-0.28-0.34-0.56-0.68-0.85-1.01c-0.34-0.39-0.3-0.97,0.09-1.31c0.39-0.34,0.97-0.3,1.31,0.09
			c0.31,0.35,0.61,0.71,0.9,1.07c0.32,0.4,0.26,0.98-0.14,1.31C65.25,16.17,65.05,16.23,64.84,16.23z M11.9,15.31
			c-0.22,0-0.43-0.08-0.61-0.23c-0.39-0.34-0.43-0.92-0.09-1.31c0.31-0.35,0.62-0.7,0.94-1.04c0.35-0.37,0.94-0.39,1.31-0.04
			c0.37,0.35,0.39,0.94,0.04,1.31c-0.3,0.32-0.6,0.65-0.89,0.98C12.42,15.2,12.16,15.31,11.9,15.31z M60.76,11.99
			c-0.22,0-0.44-0.08-0.61-0.23c-0.33-0.29-0.67-0.58-1.01-0.86c-0.4-0.32-0.46-0.91-0.14-1.31c0.32-0.4,0.91-0.46,1.31-0.14
			c0.36,0.29,0.72,0.59,1.07,0.9c0.39,0.34,0.42,0.93,0.09,1.31C61.28,11.88,61.02,11.99,60.76,11.99z M16.12,11.2
			c-0.27,0-0.54-0.12-0.72-0.34c-0.33-0.4-0.27-0.98,0.13-1.31c0.36-0.29,0.73-0.58,1.1-0.86c0.41-0.31,0.99-0.23,1.3,0.18
			c0.31,0.41,0.23,0.99-0.18,1.3c-0.35,0.27-0.7,0.54-1.04,0.82C16.54,11.13,16.33,11.2,16.12,11.2z M56.02,8.49
			c-0.17,0-0.33-0.04-0.49-0.14c-0.38-0.23-0.76-0.46-1.14-0.67c-0.45-0.25-0.61-0.82-0.36-1.27c0.25-0.45,0.82-0.61,1.27-0.36
			c0.41,0.23,0.81,0.46,1.21,0.71c0.44,0.27,0.57,0.84,0.31,1.28C56.64,8.33,56.33,8.49,56.02,8.49z M20.98,7.87
			c-0.32,0-0.64-0.17-0.81-0.47c-0.25-0.45-0.1-1.01,0.35-1.27c0.4-0.23,0.81-0.45,1.23-0.66c0.46-0.23,1.02-0.06,1.25,0.4
			c0.24,0.46,0.06,1.02-0.4,1.25c-0.39,0.2-0.78,0.41-1.16,0.63C21.29,7.84,21.14,7.87,20.98,7.87z M50.75,5.84
			c-0.11,0-0.23-0.02-0.34-0.07C50,5.61,49.58,5.46,49.16,5.31c-0.48-0.17-0.74-0.7-0.57-1.19c0.17-0.48,0.7-0.74,1.19-0.57
			c0.44,0.16,0.88,0.32,1.31,0.49c0.48,0.19,0.71,0.73,0.52,1.21C51.47,5.62,51.12,5.84,50.75,5.84z M26.33,5.42
			c-0.38,0-0.74-0.24-0.88-0.62c-0.17-0.48,0.08-1.02,0.56-1.19c0.44-0.16,0.88-0.31,1.32-0.45c0.49-0.15,1.01,0.12,1.17,0.61
			c0.15,0.49-0.12,1.01-0.61,1.17c-0.42,0.13-0.84,0.27-1.26,0.42C26.54,5.4,26.44,5.42,26.33,5.42z M45.11,4.14
			c-0.06,0-0.13-0.01-0.19-0.02c-0.43-0.09-0.86-0.17-1.3-0.25c-0.51-0.09-0.85-0.57-0.76-1.07c0.09-0.51,0.56-0.84,1.07-0.76
			c0.46,0.08,0.92,0.16,1.37,0.26c0.5,0.11,0.82,0.6,0.72,1.1C45.92,3.84,45.54,4.14,45.11,4.14z M32.03,3.92
			c-0.44,0-0.84-0.32-0.91-0.77c-0.09-0.51,0.25-0.99,0.76-1.07c0.46-0.08,0.92-0.15,1.38-0.21c0.5-0.07,0.98,0.29,1.04,0.8
			c0.07,0.51-0.29,0.98-0.8,1.04c-0.44,0.06-0.88,0.13-1.31,0.2C32.13,3.91,32.08,3.92,32.03,3.92z M39.26,3.43
			c-0.01,0-0.02,0-0.03,0c-0.41-0.01-0.83-0.02-1.24-0.02H37.9c-0.51,0-0.93-0.42-0.93-0.93s0.42-0.93,0.93-0.93h0.08
			c0.44,0,0.88,0.01,1.31,0.02c0.51,0.02,0.91,0.45,0.9,0.96C40.17,3.03,39.76,3.43,39.26,3.43z"/>
	</g>
	<g>
		<path class="st3" d="M33.48,72.18c-0.04,0-0.08,0-0.12-0.01c-0.46-0.06-0.92-0.13-1.38-0.21c-0.51-0.09-0.85-0.57-0.76-1.07
			c0.09-0.51,0.57-0.85,1.07-0.76c0.43,0.07,0.87,0.14,1.31,0.2c0.51,0.07,0.87,0.53,0.8,1.04C34.34,71.83,33.94,72.18,33.48,72.18z
			 M27.73,70.92c-0.09,0-0.18-0.01-0.28-0.04c-0.45-0.14-0.89-0.29-1.33-0.44c-0.48-0.17-0.74-0.7-0.57-1.19
			c0.17-0.48,0.7-0.74,1.19-0.57c0.42,0.15,0.83,0.29,1.26,0.42c0.49,0.15,0.76,0.67,0.61,1.16C28.49,70.66,28.12,70.92,27.73,70.92
			z M22.27,68.69c-0.14,0-0.29-0.03-0.42-0.1c-0.42-0.21-0.83-0.43-1.23-0.66c-0.45-0.25-0.61-0.82-0.35-1.27
			c0.25-0.45,0.82-0.61,1.27-0.35c0.38,0.22,0.77,0.43,1.17,0.63c0.46,0.23,0.64,0.79,0.4,1.25C22.93,68.51,22.61,68.69,22.27,68.69
			z"/>
	</g>
</g>
</svg>
