<?xml version="1.0" encoding="utf-8"?>
<!-- Generator: Adobe Illustrator 24.2.1, SVG Export Plug-In . SVG Version: 6.00 Build 0)  -->
<svg version="1.1" id="Layer_1" xmlns="http://www.w3.org/2000/svg" xmlns:xlink="http://www.w3.org/1999/xlink" x="0px" y="0px"
	 viewBox="0 0 80 80" style="enable-background:new 0 0 80 80;" xml:space="preserve">
<style type="text/css">
	.st0{fill:#61C4F2;}
	.st1{fill:#F9F9F9;}
	.st2{fill:#F86464;}
</style>
<g>
	<path class="st0" d="M64.64,39.76c-3.69,1.21-5.46,9.58-8.8,9.83c-1.66,0.12-3.54-0.81-4.97-4.32c-0.84-2.07-2.73-3.49-4.11-3.76
		c-3.07-0.61-6.14,2.08-8.08,1.34c-1.17-0.44-2.37-3.77-3.6-4.98c-1.23-1.21-3.83-1.21-5.06-0.61v15.85h3.64v15.55
		c0,1.21-0.42,3.68-1.1,4.49h35.72V37.88C67.58,39.02,65.94,39.33,64.64,39.76z M55.53,64.66H43.38v-3.64h12.15V64.66z"/>
	<g>
		<path class="st1" d="M77.09,74.38H15.75c-0.5,0-0.91-0.41-0.91-0.91c0-0.5,0.41-0.91,0.91-0.91h61.34c0.5,0,0.91,0.41,0.91,0.91
			C78,73.97,77.59,74.38,77.09,74.38z"/>
	</g>
	<g>
		<path class="st1" d="M67.98,73.77c-0.5,0-0.91-0.41-0.91-0.91V33.08H30.63v8.81c0,0.5-0.41,0.91-0.91,0.91
			c-0.5,0-0.91-0.41-0.91-0.91v-9.72c0-0.5,0.41-0.91,0.91-0.91h38.26c0.5,0,0.91,0.41,0.91,0.91v40.69
			C68.89,73.37,68.48,73.77,67.98,73.77z"/>
	</g>
	<g>
		<path class="st1" d="M25.46,41.58c-0.5,0-0.91-0.41-0.91-0.91v-3.64c0-0.5,0.41-0.91,0.91-0.91h3.04c0.5,0,0.91,0.41,0.91,0.91
			c0,0.5-0.41,0.91-0.91,0.91h-2.13v2.73C26.38,41.18,25.97,41.58,25.46,41.58z"/>
	</g>
	<g>
		<path class="st1" d="M42.84,63.13c-0.09,0-0.19-0.01-0.28-0.04c-2.91-0.93-6.69-3.28-8.92-5.11c-0.39-0.32-0.44-0.89-0.12-1.28
			c0.32-0.39,0.89-0.44,1.28-0.12c2.04,1.68,5.65,3.93,8.31,4.78c0.48,0.15,0.74,0.67,0.59,1.15
			C43.58,62.88,43.23,63.13,42.84,63.13z"/>
	</g>
	<g>
		<path class="st1" d="M56.35,63.55c-0.39,0-0.75-0.25-0.87-0.64c-0.15-0.48,0.12-0.99,0.59-1.14c9.12-2.88,15.24-11.24,15.24-20.8
			v-3.03h-2.13c-0.5,0-0.91-0.41-0.91-0.91c0-0.5,0.41-0.91,0.91-0.91h3.04c0.5,0,0.91,0.41,0.91,0.91v3.94
			c0,10.37-6.64,19.43-16.51,22.54C56.54,63.54,56.44,63.55,56.35,63.55z"/>
	</g>
	<g>
		<path class="st1" d="M55.83,65.88H43.08c-0.5,0-0.91-0.41-0.91-0.91v-4.25c0-0.5,0.41-0.91,0.91-0.91h12.75
			c0.5,0,0.91,0.41,0.91,0.91v4.25C56.74,65.47,56.33,65.88,55.83,65.88z M43.99,64.06h10.93v-2.43H43.99V64.06z"/>
	</g>
	<g>
		<path class="st1" d="M54.96,50.1c-2.99,0-4.37-2.87-5.49-5.17c-0.76-1.56-1.54-3.18-2.52-3.32c-1.93-0.28-2.94,0.32-4.02,0.95
			c-1.03,0.6-2.2,1.29-3.95,0.85c-2.85-0.71-4.15-5-4.29-5.48c-0.14-0.48,0.14-0.99,0.63-1.13c0.48-0.14,0.99,0.14,1.13,0.62
			c0.28,0.97,1.43,3.83,2.98,4.22c1.03,0.26,1.65-0.11,2.59-0.66c1.18-0.69,2.64-1.54,5.2-1.18c1.94,0.28,2.94,2.34,3.9,4.33
			c1.21,2.5,2.13,4.15,3.85,4.15c2.69,0,3.47-1.76,4.38-3.79c0.27-0.62,0.56-1.26,0.9-1.83c1.56-2.6,2.34-3.11,2.96-3.38
			c0.42-0.28,1-0.17,1.28,0.24c0.28,0.42,0.18,0.98-0.24,1.26c-0.09,0.06-0.19,0.11-0.3,0.16c-0.2,0.09-0.74,0.33-2.13,2.65
			c-0.29,0.48-0.54,1.04-0.8,1.63C60.04,47.4,58.84,50.1,54.96,50.1z"/>
	</g>
	<path class="st2" d="M43.82,19.11l-26.99,0.02c-2.44,0-4.42-1.99-4.43-4.44l0-2.67c0-2.46,1.98-4.45,4.42-4.45l26.99-0.02
		c2.44,0,4.42,1.99,4.43,4.44l0,2.67C48.24,17.12,46.27,19.11,43.82,19.11z"/>
	<g>
		<path class="st1" d="M29.72,53.73c-0.5,0-0.91-0.41-0.91-0.91l0-4.39L9.6,36.94c-2.76-1.65-4.48-4.68-4.48-7.9l0-12.56
			c0-1.08,0.42-2.1,1.19-2.87c0.77-0.77,1.79-1.19,2.87-1.19l2.32,0c0.5,0,0.91,0.41,0.91,0.91c0,0.5-0.41,0.91-0.91,0.91l-2.32,0
			c-0.6,0-1.16,0.23-1.59,0.66c-0.42,0.42-0.65,0.98-0.65,1.58l0,12.56c0,2.58,1.38,5.01,3.59,6.33l19.65,11.75
			c0.28,0.16,0.44,0.46,0.44,0.78l0,4.91C30.63,53.32,30.22,53.73,29.72,53.73L29.72,53.73z"/>
	</g>
	<g>
		<path class="st1" d="M29.72,74.38c-2.85,0-5.16-2.32-5.16-5.16V53.43c0-0.5,0.41-0.91,0.91-0.91h8.5c0.5,0,0.91,0.41,0.91,0.91
			v15.79C34.88,72.06,32.56,74.38,29.72,74.38z M26.38,54.34v14.88c0,1.84,1.5,3.34,3.34,3.34c1.84,0,3.34-1.5,3.34-3.34V54.34
			H26.38z"/>
	</g>
	<g>
		<path class="st1" d="M16.52,20.35c-1.42,0-2.76-0.56-3.77-1.56c-1.01-1.01-1.56-2.35-1.56-3.78l0-3.3c0-2.95,2.39-5.35,5.33-5.35
			l27.61-0.02c1.43,0,2.76,0.56,3.77,1.56c1.01,1.01,1.56,2.35,1.56,3.78l0,3.3c0,2.95-2.39,5.35-5.33,5.35L16.52,20.35
			C16.52,20.35,16.52,20.35,16.52,20.35z M44.12,8.16c0,0-27.61,0.02-27.61,0.02c-1.93,0-3.51,1.58-3.51,3.53l0,3.3
			c0,0.94,0.37,1.83,1.03,2.49c0.66,0.66,1.54,1.03,2.48,1.03c0,0,27.61-0.02,27.61-0.02c1.93,0,3.51-1.58,3.51-3.53l0-3.3
			c0-0.94-0.37-1.83-1.03-2.49C45.94,8.52,45.06,8.16,44.12,8.16z"/>
	</g>
	<g>
		<path class="st1" d="M20,33.69c-0.5,0-0.91-0.41-0.91-0.91v-8.5c0-0.5,0.41-0.91,0.91-0.91c0.5,0,0.91,0.41,0.91,0.91v8.5
			C20.91,33.28,20.5,33.69,20,33.69z"/>
	</g>
	<g>
		<path class="st1" d="M25.46,29.44c-0.5,0-0.91-0.41-0.91-0.91v-4.25c0-0.5,0.41-0.91,0.91-0.91c0.5,0,0.91,0.41,0.91,0.91v4.25
			C26.38,29.03,25.97,29.44,25.46,29.44z"/>
	</g>
	<g>
		<path class="st1" d="M30.93,29.44c-0.5,0-0.91-0.41-0.91-0.91v-4.25c0-0.5,0.41-0.91,0.91-0.91c0.5,0,0.91,0.41,0.91,0.91v4.25
			C31.84,29.03,31.43,29.44,30.93,29.44z"/>
	</g>
	<g>
		<path class="st1" d="M36.4,29.44c-0.5,0-0.91-0.41-0.91-0.91v-4.25c0-0.5,0.41-0.91,0.91-0.91c0.5,0,0.91,0.41,0.91,0.91v4.25
			C37.31,29.03,36.9,29.44,36.4,29.44z"/>
	</g>
	<g>
		<path class="st1" d="M41.86,29.44c-0.5,0-0.91-0.41-0.91-0.91v-4.25c0-0.5,0.41-0.91,0.91-0.91c0.5,0,0.91,0.41,0.91,0.91v4.25
			C42.77,29.03,42.37,29.44,41.86,29.44z"/>
	</g>
</g>
</svg>
